<?xml version="1.0" encoding="UTF-8" standalone="no"?>
<!-- Created with Inkscape (http://www.inkscape.org/) -->

<svg
   width="80mm"
   height="30mm"
   viewBox="0 0 80 30"
   version="1.1"
   id="svg1"
   inkscape:version="1.3.2 (091e20e, 2023-11-25)"
   sodipodi:docname="minihpc.svg"
   inkscape:export-filename="minihpc.png"
   inkscape:export-xdpi="96"
   inkscape:export-ydpi="96"
   xmlns:inkscape="http://www.inkscape.org/namespaces/inkscape"
   xmlns:sodipodi="http://sodipodi.sourceforge.net/DTD/sodipodi-0.dtd"
   xmlns="http://www.w3.org/2000/svg"
   xmlns:svg="http://www.w3.org/2000/svg">
  <sodipodi:namedview
     id="namedview1"
     pagecolor="#ffffff"
     bordercolor="#000000"
     borderopacity="0.25"
     inkscape:showpageshadow="2"
     inkscape:pageopacity="0.0"
     inkscape:pagecheckerboard="0"
     inkscape:deskcolor="#d1d1d1"
     inkscape:document-units="mm"
     showguides="true"
     inkscape:zoom="3.3233275"
     inkscape:cx="188.36543"
     inkscape:cy="67.402325"
     inkscape:window-width="2560"
     inkscape:window-height="1333"
     inkscape:window-x="0"
     inkscape:window-y="25"
     inkscape:window-maximized="0"
     inkscape:current-layer="text1">
    <sodipodi:guide
       position="32.964569,14.891239"
       orientation="0,-1"
       id="guide4"
       inkscape:locked="false" />
    <sodipodi:guide
       position="-33.624893,32.227736"
       orientation="1,0"
       id="guide6"
       inkscape:locked="false" />
  </sodipodi:namedview>
  <defs
     id="defs1" />
  <g
     inkscape:label="图层 1"
     inkscape:groupmode="layer"
     id="layer1">
    <g
       id="text1"
       style="font-size:22.3988px;stroke-width:1.86657"
       transform="scale(0.93269295,1.0721642)"
       aria-label="MiniHPC">
      <path
         style="font-style:italic;font-weight:bold;font-size:15.875px;font-family:Calibri;-inkscape-font-specification:'Calibri Bold Italic';fill:#0000ff"
         d="m 15.294595,22.614435 q -0.02325,0.07751 -0.06976,0.139527 -0.04651,0.06201 -0.162781,0.100769 -0.10852,0.03876 -0.302307,0.05426 -0.193786,0.02325 -0.480591,0.02325 -0.302307,0 -0.488342,-0.02325 -0.186035,-0.0155 -0.286804,-0.05426 -0.100769,-0.03876 -0.131775,-0.100769 -0.02325,-0.06201 -0.0078,-0.139527 l 1.627808,-8.162292 h -0.0155 l -4.55011,8.154541 q -0.09302,0.193786 -0.364319,0.26355 -0.2635493,0.06201 -0.7518916,0.06201 -0.5038452,0 -0.7286377,-0.08527 -0.217041,-0.09302 -0.2247925,-0.224792 L 7.1788116,14.444391 h -0.015503 l -1.6355591,8.170044 q -0.015503,0.07751 -0.069763,0.139527 -0.046509,0.06201 -0.1627808,0.100769 -0.1085205,0.03876 -0.3023071,0.05426 -0.1860352,0.02325 -0.4805909,0.02325 -0.2945556,0 -0.4805908,-0.02325 -0.1860351,-0.0155 -0.2868042,-0.05426 -0.100769,-0.03876 -0.1317749,-0.100769 -0.031006,-0.06201 -0.00775,-0.139527 l 1.7828369,-8.937439 q 0.038757,-0.193786 0.1162719,-0.348816 0.085266,-0.155029 0.2015381,-0.255798 0.1240235,-0.108521 0.2790528,-0.162781 0.1550293,-0.05426 0.333313,-0.05426 h 1.2712402 q 0.3410644,0 0.5813599,0.06201 0.2402954,0.05426 0.3953247,0.193786 0.1550293,0.139527 0.2325439,0.364319 0.085266,0.224793 0.116272,0.542603 l 0.9689331,5.968628 h 0.038757 L 13.36448,14.018061 q 0.15503,-0.302307 0.310059,-0.519348 0.155029,-0.224793 0.341065,-0.364319 0.193786,-0.147278 0.42633,-0.20929 0.232544,-0.06976 0.550354,-0.06976 h 1.441773 q 0.193786,0 0.333313,0.05426 0.139526,0.05426 0.217041,0.162781 0.08527,0.100769 0.100769,0.255798 0.02325,0.147278 -0.0078,0.341065 z m 6.015137,-9.231994 q -0.05426,0.286804 -0.147278,0.488342 -0.09302,0.193786 -0.248047,0.31781 -0.155029,0.116272 -0.379822,0.170532 -0.224792,0.04651 -0.558105,0.04651 -0.325562,0 -0.534851,-0.04651 -0.201538,-0.05426 -0.310059,-0.170532 -0.100769,-0.124024 -0.116272,-0.31781 -0.0155,-0.201538 0.04651,-0.488342 0.05426,-0.279053 0.147278,-0.47284 0.09302,-0.193786 0.248047,-0.31781 0.155029,-0.124023 0.379822,-0.178284 0.224792,-0.05426 0.558105,-0.05426 0.325562,0 0.5271,0.05426 0.209289,0.05426 0.310058,0.178284 0.108521,0.124024 0.116272,0.31781 0.0155,0.193787 -0.03876,0.47284 z m -1.999878,9.239746 q -0.0155,0.07751 -0.07752,0.139526 -0.05426,0.05426 -0.178283,0.09302 -0.116272,0.03876 -0.310059,0.05426 -0.193787,0.02325 -0.472839,0.02325 -0.286804,0 -0.47284,-0.02325 -0.178283,-0.0155 -0.286804,-0.05426 -0.100769,-0.03876 -0.131775,-0.09302 -0.03101,-0.06201 -0.0155,-0.139526 l 1.37201,-6.898804 q 0.0155,-0.07752 0.06976,-0.131775 0.06201,-0.06201 0.178284,-0.100769 0.124023,-0.04651 0.310058,-0.06976 0.193787,-0.02325 0.480591,-0.02325 0.286804,0 0.465088,0.02325 0.186035,0.02325 0.286804,0.06976 0.108521,0.03876 0.139526,0.100769 0.03101,0.05426 0.0155,0.131775 z m 9.387024,-5.371765 q 0,0.271301 -0.03876,0.542602 -0.03101,0.271301 -0.08527,0.558106 l -0.860413,4.271057 q -0.0155,0.07751 -0.07751,0.139526 -0.05426,0.05426 -0.178283,0.09302 -0.116272,0.03876 -0.310059,0.05426 -0.186035,0.02325 -0.472839,0.02325 -0.286805,0 -0.47284,-0.02325 -0.178283,-0.0155 -0.279052,-0.05426 -0.10077,-0.03876 -0.139527,-0.09302 -0.03101,-0.06201 -0.0155,-0.139526 l 0.837158,-4.147034 q 0.03876,-0.186035 0.05426,-0.379822 0.02325,-0.193786 0.02325,-0.341064 0,-0.348816 -0.147278,-0.573609 -0.147278,-0.224792 -0.496093,-0.224792 -0.317811,0 -0.666626,0.201538 -0.341065,0.201538 -0.651124,0.550354 -0.302307,0.341064 -0.542602,0.806152 -0.240295,0.457337 -0.341065,0.976685 l -0.627868,3.131592 q -0.0155,0.07751 -0.07751,0.139526 -0.05426,0.05426 -0.178283,0.09302 -0.116272,0.03876 -0.310059,0.05426 -0.193787,0.02325 -0.472839,0.02325 -0.286805,0 -0.47284,-0.02325 -0.178283,-0.0155 -0.286804,-0.05426 -0.100769,-0.03876 -0.131775,-0.09302 -0.03101,-0.06201 -0.0155,-0.139526 l 1.387512,-6.922058 q 0.0155,-0.07752 0.06201,-0.131775 0.05426,-0.06201 0.155029,-0.09302 0.108521,-0.03876 0.271302,-0.05426 0.170532,-0.02325 0.403076,-0.02325 0.240295,0 0.387573,0.02325 0.155029,0.0155 0.240295,0.05426 0.08527,0.03101 0.108521,0.09302 0.03101,0.05426 0.0155,0.131775 l -0.224793,1.139465 q 0.162781,-0.271301 0.434082,-0.550354 0.271302,-0.286804 0.620118,-0.511597 0.356567,-0.224792 0.767395,-0.364319 0.418579,-0.147277 0.868164,-0.147277 0.542602,0 0.906921,0.16278 0.37207,0.15503 0.596863,0.426331 0.232544,0.271301 0.333313,0.63562 0.100769,0.356567 0.100769,0.759644 z m 4.883423,-3.867981 q -0.05426,0.286804 -0.147278,0.488342 -0.09302,0.193786 -0.248047,0.31781 -0.155029,0.116272 -0.379822,0.170532 -0.224792,0.04651 -0.558105,0.04651 -0.325562,0 -0.534851,-0.04651 -0.201538,-0.05426 -0.310059,-0.170532 -0.100769,-0.124024 -0.116272,-0.31781 -0.0155,-0.201538 0.04651,-0.488342 0.05426,-0.279053 0.147278,-0.47284 0.09302,-0.193786 0.248047,-0.31781 0.155029,-0.124023 0.379821,-0.178284 0.224793,-0.05426 0.558106,-0.05426 0.325561,0 0.5271,0.05426 0.209289,0.05426 0.310058,0.178284 0.108521,0.124024 0.116272,0.31781 0.0155,0.193787 -0.03876,0.47284 z m -1.999878,9.239746 q -0.0155,0.07751 -0.07751,0.139526 -0.05426,0.05426 -0.178283,0.09302 -0.116272,0.03876 -0.310059,0.05426 -0.193787,0.02325 -0.472839,0.02325 -0.286805,0 -0.47284,-0.02325 -0.178283,-0.0155 -0.286804,-0.05426 -0.100769,-0.03876 -0.131775,-0.09302 -0.03101,-0.06201 -0.0155,-0.139526 l 1.372009,-6.898804 q 0.0155,-0.07752 0.06976,-0.131775 0.06201,-0.06201 0.178283,-0.100769 0.124024,-0.04651 0.310059,-0.06976 0.193787,-0.02325 0.480591,-0.02325 0.286804,0 0.465088,0.02325 0.186035,0.02325 0.286804,0.06976 0.10852,0.03876 0.139526,0.100769 0.03101,0.05426 0.0155,0.131775 z"
         id="path12" />
      <path
         style="font-style:italic;font-weight:bold;font-size:28.2222px;font-family:Calibri;-inkscape-font-specification:'Calibri Bold Italic'"
         d="m 47.886048,22.403423 q -0.02756,0.137804 -0.137803,0.248047 -0.110243,0.110243 -0.330729,0.179145 -0.220486,0.0689 -0.578776,0.09646 -0.358289,0.04134 -0.881944,0.04134 -0.523654,0 -0.868163,-0.04134 -0.344509,-0.02756 -0.537434,-0.09646 -0.179145,-0.0689 -0.248047,-0.179145 -0.0689,-0.110243 -0.02756,-0.248047 l 1.433159,-7.220914 h -6.6697 l -1.433159,7.220914 q -0.02756,0.137804 -0.137803,0.248047 -0.110243,0.110243 -0.34451,0.179145 -0.220485,0.0689 -0.578775,0.09646 -0.344509,0.04134 -0.868163,0.04134 -0.537435,0 -0.881944,-0.04134 -0.330729,-0.02756 -0.523654,-0.09646 -0.192926,-0.0689 -0.261827,-0.179145 -0.0689,-0.110243 -0.02756,-0.248047 L 37.357845,5.536249 q 0.01378,-0.1378037 0.124023,-0.2480467 0.110243,-0.1102429 0.330729,-0.1791448 0.220486,-0.068902 0.578776,-0.096463 0.358289,-0.041341 0.881943,-0.041341 0.523655,0 0.868164,0.041341 0.344509,0.027561 0.537434,0.096463 0.192925,0.068902 0.248047,0.1791448 0.0689,0.110243 0.04134,0.2480467 l -1.309135,6.559457 h 6.68348 l 1.295355,-6.559457 q 0.02756,-0.1378037 0.137804,-0.2480467 0.110242,-0.1102429 0.330728,-0.1791448 0.220486,-0.068902 0.578776,-0.096463 0.35829,-0.041341 0.881944,-0.041341 0.523654,0 0.868163,0.041341 0.344509,0.027561 0.537435,0.096463 0.192925,0.068902 0.248046,0.1791448 0.0689,0.110243 0.04134,0.2480467 z M 66.461987,9.4223137 q 0,0.7717013 -0.179145,1.6123033 -0.165365,0.840603 -0.551215,1.653645 -0.38585,0.799261 -1.005967,1.529621 -0.606336,0.716579 -1.502061,1.281574 -0.881943,0.551215 -2.053275,0.881944 -1.171332,0.316949 -2.756074,0.316949 H 56.5539 l -1.143771,5.705073 q -0.02756,0.137804 -0.137804,0.248047 -0.110243,0.110243 -0.344509,0.179145 -0.234266,0.0689 -0.592556,0.09646 -0.35829,0.04134 -0.881944,0.04134 -0.509874,0 -0.854383,-0.04134 -0.330729,-0.02756 -0.523654,-0.09646 -0.192925,-0.0689 -0.261827,-0.165364 -0.0689,-0.110243 -0.02756,-0.261828 L 54.996718,6.3492909 Q 55.120741,5.7016135 55.534152,5.3846649 55.947563,5.053936 56.5539,5.053936 h 3.899845 q 0.716579,0 1.281574,0.055121 0.564996,0.041341 1.11621,0.1515841 0.840603,0.1653644 1.502061,0.5098737 0.675238,0.3445093 1.143771,0.8681634 0.468532,0.5098738 0.716579,1.2126727 0.248047,0.6890186 0.248047,1.5709623 z m -3.817163,0.4134112 q 0,-0.6614579 -0.316949,-1.1437709 Q 62.010927,8.209641 61.349469,8.0167158 61.060081,7.9202532 60.701791,7.8926925 60.343502,7.8513514 59.90253,7.8513514 h -1.598523 l -1.185112,6.0495826 h 1.653644 q 0.785482,0 1.336696,-0.179144 0.564996,-0.192926 0.978407,-0.496094 0.427191,-0.303168 0.716579,-0.716579 0.303168,-0.413411 0.482313,-0.868164 0.192925,-0.454752 0.275608,-0.909504 0.08268,-0.468533 0.08268,-0.8957241 z M 81.827103,6.7764824 q 0,0.3858504 -0.137804,1.0335279 -0.124023,0.6476774 -0.330729,1.0473082 -0.192925,0.3858504 -0.440972,0.3858504 -0.179144,0 -0.427191,-0.2204859 Q 80.24236,8.7884166 79.842729,8.5265896 79.443099,8.2647625 78.822982,8.0442766 78.202865,7.8100103 77.27958,7.8100103 q -1.019747,0 -1.86035,0.4134111 -0.840602,0.3996308 -1.50206,1.074869 -0.661458,0.6614578 -1.157551,1.5296216 -0.496094,0.868163 -0.826823,1.805228 -0.316948,0.937065 -0.482313,1.874131 -0.151584,0.923285 -0.151584,1.722546 0,0.964626 0.234267,1.694986 0.248046,0.730359 0.702798,1.212672 0.454753,0.482313 1.116211,0.73036 0.661457,0.234266 1.48828,0.234266 0.978406,0 1.667425,-0.206705 0.702799,-0.206706 1.185112,-0.454752 0.496093,-0.248047 0.813041,-0.454753 0.330729,-0.206705 0.592556,-0.206705 0.179145,0 0.234267,0.137804 0.0689,0.124023 0.0689,0.358289 0,0.09646 -0.02756,0.289388 -0.02756,0.192925 -0.0689,0.440972 -0.04134,0.234266 -0.09646,0.523654 -0.05512,0.275607 -0.124023,0.523654 -0.0689,0.234266 -0.165364,0.440972 -0.08268,0.192925 -0.234267,0.344509 -0.151584,0.151584 -0.592556,0.399631 -0.440972,0.234266 -1.074869,0.440972 -0.633897,0.206705 -1.433158,0.344509 -0.799262,0.151584 -1.708766,0.151584 -1.502061,0 -2.714733,-0.399631 -1.198893,-0.39963 -2.039495,-1.212672 -0.840603,-0.813042 -1.295355,-2.039495 -0.454753,-1.226453 -0.454753,-2.866317 0,-1.281575 0.261827,-2.659612 0.261828,-1.391818 0.785482,-2.714733 0.537434,-1.3229158 1.350476,-2.5080277 0.813042,-1.185112 1.915472,-2.0670557 1.11621,-0.8957242 2.521808,-1.4193783 1.419378,-0.5236541 3.141924,-0.5236541 0.964626,0 1.819009,0.2067056 0.868164,0.1929252 1.502061,0.5236541 0.647677,0.3307289 0.895724,0.6063363 0.261827,0.2618271 0.261827,0.6752382 z"
         id="path13" />
    </g>
    <rect
       style="fill:#222222;fill-opacity:1;stroke-width:0.341999;paint-order:markers fill stroke"
       id="rect4"
       width="16.267723"
       height="3.4729803"
       x="14.169318"
       y="7.5389223"
       ry="0.29952866" />
    <circle
       style="fill:#ffffff;stroke-width:0.137156;paint-order:markers fill stroke"
       id="path4"
       cx="26.542957"
       cy="9.2754126"
       r="1.0127957" />
    <circle
       style="fill:#ffffff;fill-opacity:1;stroke:#000000;stroke-width:0.167403;stroke-dasharray:none;stroke-opacity:1;paint-order:markers fill stroke"
       id="path5"
       cx="26.542957"
       cy="9.2754126"
       r="0.62638289" />
    <rect
       style="fill:#000000;fill-opacity:1;fill-rule:evenodd;stroke:#ffffff;stroke-width:0.0719859;stroke-dasharray:none;stroke-opacity:1;paint-order:markers fill stroke"
       id="rect6"
       width="0.83113861"
       height="0.26496565"
       x="8.5201378"
       y="-26.609982"
       rx="0"
       ry="0.23468389"
       transform="matrix(0.00735287,0.99997297,-0.99999074,0.00430378,0,0)" />
    <rect
       style="fill:#d4ff2a;fill-opacity:1;fill-rule:evenodd;stroke:none;stroke-width:0.0600825;stroke-dasharray:none;stroke-opacity:1;paint-order:markers fill stroke"
       id="rect11"
       width="0.38268319"
       height="0.95545465"
       x="28.438404"
       y="8.7976847"
       ry="0.31320551"
       rx="0" />
    <rect
       style="fill:#ffffff;fill-opacity:1;fill-rule:evenodd;stroke:none;stroke-width:0.1;stroke-dasharray:none;stroke-opacity:1;paint-order:markers fill stroke"
       id="rect12"
       width="0.31537431"
       height="2.069644"
       x="15.824698"
       y="8.2405901"
       ry="0.15768716" />
    <rect
       style="fill:#ffffff;fill-opacity:1;fill-rule:evenodd;stroke:none;stroke-width:0.1;stroke-dasharray:none;stroke-opacity:1;paint-order:markers fill stroke"
       id="rect12-3"
       width="0.31537431"
       height="2.069644"
       x="16.354166"
       y="8.2405901"
       ry="0.15768716" />
    <rect
       style="fill:#ffffff;fill-opacity:1;fill-rule:evenodd;stroke:none;stroke-width:0.1;stroke-dasharray:none;stroke-opacity:1;paint-order:markers fill stroke"
       id="rect12-9"
       width="0.31537431"
       height="2.069644"
       x="16.883636"
       y="8.2405901"
       ry="0.15768716" />
    <rect
       style="fill:#ffffff;fill-opacity:1;fill-rule:evenodd;stroke:none;stroke-width:0.1;stroke-dasharray:none;stroke-opacity:1;paint-order:markers fill stroke"
       id="rect12-93"
       width="0.31537431"
       height="2.069644"
       x="17.413105"
       y="8.2405901"
       ry="0.15768716" />
    <rect
       style="fill:#ffffff;fill-opacity:1;fill-rule:evenodd;stroke:none;stroke-width:0.1;stroke-dasharray:none;stroke-opacity:1;paint-order:markers fill stroke"
       id="rect12-5"
       width="0.31537431"
       height="2.069644"
       x="17.942574"
       y="8.2405901"
       ry="0.15768716" />
    <rect
       style="fill:#ffffff;fill-opacity:1;fill-rule:evenodd;stroke:none;stroke-width:0.1;stroke-dasharray:none;stroke-opacity:1;paint-order:markers fill stroke"
       id="rect12-6"
       width="0.31537431"
       height="2.069644"
       x="18.472042"
       y="8.2405901"
       ry="0.15768716" />
    <rect
       style="fill:#ffffff;fill-opacity:1;fill-rule:evenodd;stroke:none;stroke-width:0.1;stroke-dasharray:none;stroke-opacity:1;paint-order:markers fill stroke"
       id="rect12-4"
       width="0.31537431"
       height="2.069644"
       x="19.001511"
       y="8.2405901"
       ry="0.15768716" />
    <rect
       style="fill:#ffffff;fill-opacity:1;fill-rule:evenodd;stroke:none;stroke-width:0.1;stroke-dasharray:none;stroke-opacity:1;paint-order:markers fill stroke"
       id="rect12-2"
       width="0.31537431"
       height="2.069644"
       x="20.060448"
       y="8.2405901"
       ry="0.15768716" />
    <rect
       style="fill:#ffffff;fill-opacity:1;fill-rule:evenodd;stroke:none;stroke-width:0.1;stroke-dasharray:none;stroke-opacity:1;paint-order:markers fill stroke"
       id="rect12-1"
       width="0.31537431"
       height="2.069644"
       x="19.530979"
       y="8.2405901"
       ry="0.15768716" />
  </g>
</svg>
